<svg xmlns="http://www.w3.org/2000/svg" width="76" height="76" viewBox="0 0 76 76"><g transform="translate(-1703 -174)"><circle cx="38" cy="38" r="38" transform="translate(1703 174)" fill="#fff"/><path d="M16.061,43.327c.214,0,.456-.17.958-.675,4.858-4.885,9.811-9.825,14.72-14.685a1.47,1.47,0,0,0,.467-1.137C32.2,18.209,32.193,9.5,32.2.946A2.1,2.1,0,0,0,32.17.484.553.553,0,0,0,31.642,0a.662.662,0,0,0-.386.138,3,3,0,0,0-.336.319c-1.589,1.583-3.2,3.195-4.793,4.791a.871.871,0,0,1-.648.29H25.45c-3.1,0-6.243-.007-9.345-.007s-6.242,0-9.346.007H6.729a.919.919,0,0,1-.685-.307C4.479,3.656,2.918,2.1,1.186.375L1.15.339l0,0A.851.851,0,0,0,.585,0a.567.567,0,0,0-.23.053C0,.207.006.5.008.815c0,.023,0,.046,0,.069,0,4.36,0,8.744,0,13.032,0,4.357,0,8.727-.007,12.988A1.3,1.3,0,0,0,.411,27.92c4.9,4.877,9.867,9.828,14.755,14.717l.179.182C15.655,43.135,15.842,43.327,16.061,43.327Zm14.884-18.55a.2.2,0,0,1,.1.03c0,.179,0,.362,0,.539h0c0,.436-.005.886.008,1.331a.785.785,0,0,1-.267.64c-4.79,4.767-9.643,9.609-14.424,14.39-.114.115-.191.161-.266.161s-.153-.047-.264-.157c-4.764-4.756-9.637-9.62-14.485-14.456l-.024-.024a.474.474,0,0,1-.192-.358c0-.464,0-.923,0-1.408h0c0-.239,0-.487,0-.736a6.762,6.762,0,0,1,1.361.737c.176.113.356.225.53.333a8.735,8.735,0,0,1,2.276,1.8,58.54,58.54,0,0,1,5.048,7.559.975.975,0,0,0,.955.549c1.591-.008,3.205-.012,4.8-.012s3.205,0,4.8.012H20.9a1.071,1.071,0,0,0,.576-.137,1.143,1.143,0,0,0,.394-.442,57.753,57.753,0,0,1,3.256-5.166c.129-.182.258-.368.383-.548A10.548,10.548,0,0,1,28.3,26.353l.034-.022c.785-.508,1.6-1.034,2.438-1.483l.036-.021A.262.262,0,0,1,30.945,24.776ZM18.782,34.558c-.559,0-1.126,0-1.685.014h-.03a.406.406,0,0,1-.3-.079.424.424,0,0,1-.077-.316c.018-1.433.01-2.879,0-4.238a.825.825,0,0,1,.241-.614c.355-.375.71-.763,1.054-1.139h0c.279-.3.567-.618.853-.924a1.159,1.159,0,0,0,.248-.355.519.519,0,0,0-.019-.423c-.135-.29-.4-.313-.708-.313l-2.238,0-2.239,0H13.85c-.3,0-.6,0-.743.349a.513.513,0,0,0,.006.432,1.441,1.441,0,0,0,.258.34l.03.032c.628.688,1.269,1.384,1.9,2.069a.648.648,0,0,1,.212.479c-.013,1.452-.013,2.924,0,4.375a.345.345,0,0,1-.065.254.381.381,0,0,1-.274.067c-.674-.008-1.286-.013-1.874-.013s-1.14,0-1.68.013h-.015a.457.457,0,0,1-.288-.083.739.739,0,0,1-.183-.229,63.629,63.629,0,0,0-3.695-5.706c-.1-.139-.206-.282-.306-.42h0c-.3-.418-.617-.85-.958-1.249A6.68,6.68,0,0,0,5.027,25.8,26.184,26.184,0,0,0,1.465,23.61a.5.5,0,0,1-.348-.51c.011-3.622.011-7.3,0-10.918a.454.454,0,0,1,.061-.3.1.1,0,0,1,.074-.029.758.758,0,0,1,.28.106c1.123.587,2.269,1.164,3.4,1.715a.5.5,0,0,1,.3.535c0,1.925,0,3.878,0,5.8A.8.8,0,0,0,5.4,20.6a.781.781,0,0,0,.583.158c.82,0,1.651,0,2.47,0s1.65,0,2.469,0c.6,0,.788-.191.788-.807,0-.484,0-.976,0-1.452v0c0-.671,0-1.364.007-2.047a.844.844,0,0,0-.52-.87c-1.237-.621-2.491-1.256-3.7-1.87-1.646-.833-3.348-1.7-5.027-2.533-.195-.1-.279-.169-.291-.245s.062-.176.214-.325C3.615,9.4,4.855,8.159,6.07,6.925a.916.916,0,0,1,.67-.293l.057,0,3.554.006h.013c1.871,0,3.805.008,5.71.008,3.155,0,5.736-.011,8.123-.036h.075a3.2,3.2,0,0,1,2.707,1.144c.677.786,1.412,1.492,2.191,2.239.323.31.657.631.984.956l-.134.07c-.116.061-.217.113-.316.163l-1.886.953-.021.011h0c-2.182,1.1-4.438,2.243-6.664,3.353a1.222,1.222,0,0,0-.5.4,1.019,1.019,0,0,0-.146.628c.03.812.024,1.644.018,2.449h0c0,.329,0,.67,0,1s.043.521.153.63.289.153.637.153c.813,0,1.637,0,2.449,0s1.635,0,2.446,0c.336,0,.517-.047.626-.16a.892.892,0,0,0,.152-.638V14.205c0-.03,0-.062,0-.092-.008-.14-.017-.284.174-.379.944-.47,1.907-.958,2.838-1.429h0l.009,0L31,11.782a1.422,1.422,0,0,1,.039.213c0,3.7,0,7.47.007,11.193a.415.415,0,0,1-.284.406l-.3.159c-.462.242-.939.492-1.387.773l-.009.005c-.6.378-1.228.769-1.8,1.206a9.438,9.438,0,0,0-.825.7,7.123,7.123,0,0,0-.737.821c-.836,1.108-1.65,2.256-2.418,3.412s-1.511,2.351-2.208,3.551a.589.589,0,0,1-.59.35h-.021C19.908,34.563,19.341,34.558,18.782,34.558ZM17.27,27.3,16.1,28.587,14.927,27.3H17.27Zm6.364-7.668c-.59,0-1.166,0-1.712.011h-.015c-.263,0-.305-.1-.305-.338.016-.87.016-1.667,0-2.437a.444.444,0,0,1,.3-.481c.684-.333,1.374-.685,2.04-1.025h0l.861-.438.563-.282h0l.481-.241c0,.457,0,.912,0,1.352v.013c0,1.224,0,2.38.006,3.554a.348.348,0,0,1-.066.257.367.367,0,0,1-.272.069C24.844,19.637,24.229,19.633,23.634,19.633Zm-15.1,0c-.6,0-1.213,0-1.881.008-.205,0-.291-.039-.291-.277,0-1.625,0-3.244,0-4.957l.579.295.007,0c1.177.6,2.29,1.167,3.42,1.727a.345.345,0,0,1,.185.37c-.008.853-.015,1.688,0,2.532a.326.326,0,0,1-.06.243.334.334,0,0,1-.247.064C9.707,19.636,9.13,19.633,8.538,19.633ZM1.146,2a.6.6,0,0,1,.134.067L2.3,3.082l.014.014c.919.918,1.87,1.868,2.814,2.794a.3.3,0,0,1,.115.2c0,.079-.065.144-.148.227l-.006.006C3.975,7.434,2.835,8.572,1.7,9.705c-.111.112-.214.226-.344.372h0c-.063.071-.135.151-.215.238Zm29.826.054a.156.156,0,0,1,.06.014V10.23L29.574,8.779l0,0c-.874-.87-1.7-1.691-2.544-2.525a.245.245,0,0,1-.093-.173c0-.068.064-.119.123-.167.021-.018.044-.036.062-.055,1.231-1.236,2.481-2.484,3.716-3.709.009-.009.017-.018.025-.029A.148.148,0,0,1,30.972,2.049Z" transform="translate(1725 190)"/></g></svg>