<svg xmlns="http://www.w3.org/2000/svg" width="87.846" height="118.188" viewBox="0 0 87.846 118.188"><g transform="translate(-353.129 -151.683)"><path d="M397,168.194h27.093L439.1,153.183v72.463L397,267.75" fill="none" stroke="#000" stroke-linecap="round" stroke-linejoin="round" stroke-width="3"/><path d="M438.807,216.361a70.216,70.216,0,0,0-12.2,7.516C419.622,231.538,410.865,247,410.865,247H397V231.575l6.758-7.411H397" fill="none" stroke="#000" stroke-linecap="round" stroke-linejoin="round" stroke-width="3"/><path d="M424.178,168.311l14.675,14.675" fill="none" stroke="#000" stroke-linecap="round" stroke-width="3"/><path d="M437.686,181.818l-27.21,13.8V206.5h14.479V188.888" fill="none" stroke="#000" stroke-linecap="round" stroke-linejoin="round" stroke-width="3"/><g transform="translate(355 153.183)"><path d="M439.1,168.194H412.011L397,153.183v72.463l42.1,42.1" transform="translate(-397 -153.183)" fill="none" stroke="#000" stroke-linecap="round" stroke-linejoin="round" stroke-width="3"/><path d="M397,216.361a70.216,70.216,0,0,1,12.2,7.516c6.985,7.66,15.743,23.123,15.743,23.123h13.865V231.575l-6.758-7.411h6.758" transform="translate(-396.703 -153.183)" fill="none" stroke="#000" stroke-linecap="round" stroke-linejoin="round" stroke-width="3"/><path d="M438.853,168.311l-14.675,14.675" transform="translate(-423.928 -153.183)" fill="none" stroke="#000" stroke-linecap="round" stroke-width="3"/><path d="M410.476,181.818l18.842,9.556,8.367,4.243V206.5H423.206V188.888" transform="translate(-409.059 -153.183)" fill="none" stroke="#000" stroke-linecap="round" stroke-linejoin="round" stroke-width="3"/></g></g></svg>